<svg width="305" height="250" viewBox="0 0 305 250" fill="none" xmlns="http://www.w3.org/2000/svg">
<g style="mix-blend-mode:darken">
<path d="M34.4119 49.9632C22.63 65.8017 15.0544 89.074 20.7996 108.566C30.6166 141.879 72.275 144.389 100.807 148.245C120.471 150.904 140.022 166.362 156.84 175.955C179.253 188.745 215.308 208.924 241.158 195.82C262.585 184.965 274.105 158.704 280.679 136.918C290.982 102.806 291.976 61.6553 269.548 31.9356C239.021 -8.408 185.618 -1.68407 141.248 5.21916C111.55 9.84373 82.6822 14.3488 56.2796 30.0902C47.7551 35.2131 40.3243 41.9661 34.4119 49.9632Z" fill="#92E3A9"/>
<path opacity="0.4" d="M34.4119 49.9632C22.63 65.8017 15.0544 89.074 20.7996 108.566C30.6166 141.879 72.275 144.389 100.807 148.245C120.471 150.904 140.022 166.362 156.84 175.955C179.253 188.745 215.308 208.924 241.158 195.82C262.585 184.965 274.105 158.704 280.679 136.918C290.982 102.806 291.976 61.6553 269.548 31.9356C239.021 -8.408 185.618 -1.68407 141.248 5.21916C111.55 9.84373 82.6822 14.3488 56.2796 30.0902C47.7551 35.2131 40.3243 41.9661 34.4119 49.9632Z" fill="white"/>
<path d="M0 240.295C0 242.955 68.218 245.114 152.409 245.114C236.6 245.114 304.818 242.955 304.818 240.295C304.818 237.636 236.6 235.477 152.446 235.477C68.2927 235.477 0 237.636 0 240.295Z" fill="#92E3A9"/>
<path opacity="0.6" d="M0 240.295C0 242.955 68.218 245.114 152.409 245.114C236.6 245.114 304.818 242.955 304.818 240.295C304.818 237.636 236.6 235.477 152.446 235.477C68.2927 235.477 0 237.636 0 240.295Z" fill="white"/>
<path d="M169.607 1.60352H34.2695V173.273H169.607V1.60352Z" fill="white" stroke="#263238" stroke-width="0.75" stroke-linecap="round" stroke-linejoin="round"/>
<path d="M169.607 1.60352H34.2695V11.8463H169.607V1.60352Z" fill="#263238" stroke="#263238" stroke-width="0.75" stroke-linecap="round" stroke-linejoin="round"/>
<path d="M61.0008 121.334H38.1245V169.889H61.0008V121.334Z" fill="#92E3A9"/>
<path opacity="0.6" d="M61.0008 121.334H38.1245V169.889H61.0008V121.334Z" fill="white"/>
<path d="M85.9466 121.334H63.0703V169.889H85.9466V121.334Z" fill="#92E3A9"/>
<path opacity="0.6" d="M85.9466 121.334H63.0703V169.889H85.9466V121.334Z" fill="white"/>
<path d="M112.454 121.334H89.5776V169.889H112.454V121.334Z" fill="#92E3A9"/>
<path opacity="0.6" d="M112.454 121.334H89.5776V169.889H112.454V121.334Z" fill="white"/>
<path d="M138.954 121.334H116.078V169.889H138.954V121.334Z" fill="#92E3A9"/>
<path opacity="0.6" d="M138.954 121.334H116.078V169.889H138.954V121.334Z" fill="white"/>
<path d="M166.103 121.334H143.227V169.889H166.103V121.334Z" fill="white" stroke="#263238" stroke-width="0.75" stroke-linecap="round" stroke-linejoin="round"/>
<path d="M165.737 5.65283H38.1318V17.4197H165.737V5.65283Z" fill="#92E3A9"/>
<path opacity="0.6" d="M165.737 5.65283H38.1318V17.4197H165.737V5.65283Z" fill="white"/>
<path d="M163.944 7.93896H40.4258V13.1463H163.944V7.93896Z" fill="white"/>
<path d="M163.937 7.93896H149.951V13.1463H163.937V7.93896Z" fill="#263238" stroke="#263238" stroke-width="0.75" stroke-linecap="round" stroke-linejoin="round"/>
<path d="M94.9267 27.9684H68.7781C68.5106 27.9684 68.2541 27.8621 68.0649 27.6729C67.8758 27.4838 67.7695 27.2273 67.7695 26.9598C67.7695 26.6923 67.8758 26.4357 68.0649 26.2466C68.2541 26.0574 68.5106 25.9512 68.7781 25.9512H94.9267C95.1942 25.9512 95.4508 26.0574 95.6399 26.2466C95.8291 26.4357 95.9353 26.6923 95.9353 26.9598C95.9353 27.2273 95.8291 27.4838 95.6399 27.6729C95.4508 27.8621 95.1942 27.9684 94.9267 27.9684Z" fill="#263238"/>
<path d="M94.927 34.9988H68.7784C68.6392 35.0108 68.499 34.9938 68.3667 34.9487C68.2344 34.9037 68.1128 34.8316 68.0099 34.7371C67.9069 34.6427 67.8246 34.5278 67.7684 34.3999C67.7121 34.2719 67.6831 34.1337 67.6831 33.9939C67.6831 33.8542 67.7121 33.7159 67.7684 33.588C67.8246 33.4601 67.9069 33.3452 68.0099 33.2507C68.1128 33.1562 68.2344 33.0842 68.3667 33.0392C68.499 32.9941 68.6392 32.9771 68.7784 32.9891H94.927C95.1786 33.0108 95.4128 33.1261 95.5835 33.3121C95.7542 33.4982 95.8489 33.7415 95.8489 33.9939C95.8489 34.2464 95.7542 34.4897 95.5835 34.6758C95.4128 34.8618 95.1786 34.9771 94.927 34.9988Z" fill="#263238"/>
<path d="M94.9267 42.0367H68.7781C68.5106 42.0367 68.2541 41.9304 68.0649 41.7413C67.8758 41.5521 67.7695 41.2956 67.7695 41.0281C67.7695 40.7606 67.8758 40.5041 68.0649 40.3149C68.2541 40.1258 68.5106 40.0195 68.7781 40.0195H94.9267C95.1942 40.0195 95.4508 40.1258 95.6399 40.3149C95.8291 40.5041 95.9353 40.7606 95.9353 41.0281C95.9353 41.2956 95.8291 41.5521 95.6399 41.7413C95.4508 41.9304 95.1942 42.0367 94.9267 42.0367Z" fill="#263238"/>
<path d="M94.9268 49.0668H40.6572C40.4057 49.0451 40.1714 48.9299 40.0007 48.7438C39.83 48.5578 39.7354 48.3145 39.7354 48.062C39.7354 47.8095 39.83 47.5662 40.0007 47.3801C40.1714 47.1941 40.4057 47.0788 40.6572 47.0571H94.9268C95.1783 47.0788 95.4126 47.1941 95.5833 47.3801C95.7539 47.5662 95.8486 47.8095 95.8486 48.062C95.8486 48.3145 95.7539 48.5578 95.5833 48.7438C95.4126 48.9299 95.1783 49.0451 94.9268 49.0668Z" fill="#263238"/>
<path d="M94.9271 56.1041H40.6575C40.39 56.1041 40.1335 55.9978 39.9443 55.8087C39.7552 55.6195 39.6489 55.363 39.6489 55.0955C39.6489 54.828 39.7552 54.5715 39.9443 54.3823C40.1335 54.1932 40.39 54.0869 40.6575 54.0869H94.9271C95.1946 54.0869 95.4511 54.1932 95.6403 54.3823C95.8294 54.5715 95.9357 54.828 95.9357 55.0955C95.9357 55.363 95.8294 55.6195 95.6403 55.8087C95.4511 55.9978 95.1946 56.1041 94.9271 56.1041Z" fill="#263238"/>
<path d="M94.9271 63.1422H40.6575C40.39 63.1422 40.1335 63.0359 39.9443 62.8468C39.7552 62.6576 39.6489 62.4011 39.6489 62.1336C39.6489 61.8661 39.7552 61.6096 39.9443 61.4204C40.1335 61.2313 40.39 61.125 40.6575 61.125H94.9271C95.1946 61.125 95.4511 61.2313 95.6403 61.4204C95.8294 61.6096 95.9357 61.8661 95.9357 62.1336C95.9357 62.4011 95.8294 62.6576 95.6403 62.8468C95.4511 63.0359 95.1946 63.1422 94.9271 63.1422Z" fill="#263238"/>
<path d="M94.9268 70.1723H40.6572C40.4057 70.1506 40.1714 70.0353 40.0007 69.8493C39.83 69.6632 39.7354 69.4199 39.7354 69.1675C39.7354 68.915 39.83 68.6717 40.0007 68.4856C40.1714 68.2996 40.4057 68.1843 40.6572 68.1626H94.9268C95.1783 68.1843 95.4126 68.2996 95.5833 68.4856C95.7539 68.6717 95.8486 68.915 95.8486 69.1675C95.8486 69.4199 95.7539 69.6632 95.5833 69.8493C95.4126 70.0353 95.1783 70.1506 94.9268 70.1723Z" fill="#263238"/>
<path d="M94.9268 76.4257H40.6572C40.4057 76.404 40.1714 76.2887 40.0007 76.1027C39.83 75.9166 39.7354 75.6734 39.7354 75.4209C39.7354 75.1684 39.83 74.9251 40.0007 74.739C40.1714 74.553 40.4057 74.4377 40.6572 74.416H94.9268C95.1783 74.4377 95.4126 74.553 95.5833 74.739C95.7539 74.9251 95.8486 75.1684 95.8486 75.4209C95.8486 75.6734 95.7539 75.9166 95.5833 76.1027C95.4126 76.2887 95.1783 76.404 94.9268 76.4257Z" fill="#263238"/>
<path d="M94.9271 83.4854H40.6575C40.39 83.4854 40.1335 83.3792 39.9443 83.19C39.7552 83.0009 39.6489 82.7443 39.6489 82.4768C39.6489 82.2093 39.7552 81.9528 39.9443 81.7637C40.1335 81.5745 40.39 81.4683 40.6575 81.4683H94.9271C95.1946 81.4683 95.4511 81.5745 95.6403 81.7637C95.8294 81.9528 95.9357 82.2093 95.9357 82.4768C95.9357 82.7443 95.8294 83.0009 95.6403 83.19C95.4511 83.3792 95.1946 83.4854 94.9271 83.4854Z" fill="#263238"/>
<path d="M94.9268 90.4931H40.6572C40.4057 90.4714 40.1714 90.3561 40.0007 90.1701C39.83 89.984 39.7354 89.7407 39.7354 89.4883C39.7354 89.2358 39.83 88.9925 40.0007 88.8064C40.1714 88.6204 40.4057 88.5051 40.6572 88.4834H94.9268C95.1783 88.5051 95.4126 88.6204 95.5833 88.8064C95.7539 88.9925 95.8486 89.2358 95.8486 89.4883C95.8486 89.7407 95.7539 89.984 95.5833 90.1701C95.4126 90.3561 95.1783 90.4714 94.9268 90.4931Z" fill="#263238"/>
<path d="M94.9271 97.5313H40.6575C40.39 97.5313 40.1335 97.4251 39.9443 97.2359C39.7552 97.0468 39.6489 96.7902 39.6489 96.5227C39.6489 96.2552 39.7552 95.9987 39.9443 95.8096C40.1335 95.6204 40.39 95.5142 40.6575 95.5142H94.9271C95.1946 95.5142 95.4511 95.6204 95.6403 95.8096C95.8294 95.9987 95.9357 96.2552 95.9357 96.5227C95.9357 96.7902 95.8294 97.0468 95.6403 97.2359C95.4511 97.4251 95.1946 97.5313 94.9271 97.5313Z" fill="#263238"/>
<path d="M94.9268 104.561H40.6572C40.4057 104.54 40.1714 104.424 40.0007 104.238C39.83 104.052 39.7354 103.809 39.7354 103.557C39.7354 103.304 39.83 103.061 40.0007 102.875C40.1714 102.689 40.4057 102.573 40.6572 102.552H94.9268C95.1783 102.573 95.4126 102.689 95.5833 102.875C95.7539 103.061 95.8486 103.304 95.8486 103.557C95.8486 103.809 95.7539 104.052 95.5833 104.238C95.4126 104.424 95.1783 104.54 94.9268 104.561Z" fill="#263238"/>
<path d="M94.9268 111.6H40.6572C40.4057 111.578 40.1714 111.463 40.0007 111.277C39.83 111.09 39.7354 110.847 39.7354 110.595C39.7354 110.342 39.83 110.099 40.0007 109.913C40.1714 109.727 40.4057 109.612 40.6572 109.59H94.9268C95.1783 109.612 95.4126 109.727 95.5833 109.913C95.7539 110.099 95.8486 110.342 95.8486 110.595C95.8486 110.847 95.7539 111.09 95.5833 111.277C95.4126 111.463 95.1783 111.578 94.9268 111.6Z" fill="#263238"/>
<path d="M164.781 27.9684H110.534C110.266 27.9684 110.01 27.8621 109.821 27.6729C109.632 27.4838 109.525 27.2273 109.525 26.9598C109.525 26.6923 109.632 26.4357 109.821 26.2466C110.01 26.0574 110.266 25.9512 110.534 25.9512H164.781C165.049 25.9512 165.305 26.0574 165.494 26.2466C165.683 26.4357 165.79 26.6923 165.79 26.9598C165.79 27.2273 165.683 27.4838 165.494 27.6729C165.305 27.8621 165.049 27.9684 164.781 27.9684Z" fill="#263238"/>
<path d="M164.781 34.9988H110.534C110.395 35.0108 110.254 34.9938 110.122 34.9487C109.99 34.9037 109.868 34.8316 109.765 34.7371C109.662 34.6427 109.58 34.5278 109.524 34.3999C109.468 34.2719 109.438 34.1337 109.438 33.9939C109.438 33.8542 109.468 33.7159 109.524 33.588C109.58 33.4601 109.662 33.3452 109.765 33.2507C109.868 33.1562 109.99 33.0842 110.122 33.0392C110.254 32.9941 110.395 32.9771 110.534 32.9891H164.781C164.92 32.9771 165.06 32.9941 165.193 33.0392C165.325 33.0842 165.447 33.1562 165.549 33.2507C165.652 33.3452 165.735 33.4601 165.791 33.588C165.847 33.7159 165.876 33.8542 165.876 33.9939C165.876 34.1337 165.847 34.2719 165.791 34.3999C165.735 34.5278 165.652 34.6427 165.549 34.7371C165.447 34.8316 165.325 34.9037 165.193 34.9487C165.06 34.9938 164.92 35.0108 164.781 34.9988Z" fill="#263238"/>
<path d="M164.781 42.0367H110.534C110.266 42.0367 110.01 41.9304 109.821 41.7413C109.632 41.5521 109.525 41.2956 109.525 41.0281C109.525 40.7606 109.632 40.5041 109.821 40.3149C110.01 40.1258 110.266 40.0195 110.534 40.0195H164.781C165.049 40.0195 165.305 40.1258 165.494 40.3149C165.683 40.5041 165.79 40.7606 165.79 41.0281C165.79 41.2956 165.683 41.5521 165.494 41.7413C165.305 41.9304 165.049 42.0367 164.781 42.0367Z" fill="#263238"/>
<path d="M164.781 49.0667H110.534C110.395 49.0787 110.254 49.0616 110.122 49.0166C109.99 48.9715 109.868 48.8995 109.765 48.805C109.662 48.7105 109.58 48.5957 109.524 48.4677C109.468 48.3398 109.438 48.2016 109.438 48.0618C109.438 47.9221 109.468 47.7838 109.524 47.6559C109.58 47.5279 109.662 47.4131 109.765 47.3186C109.868 47.2241 109.99 47.1521 110.122 47.107C110.254 47.062 110.395 47.0449 110.534 47.057H164.781C164.92 47.0449 165.06 47.062 165.193 47.107C165.325 47.1521 165.447 47.2241 165.549 47.3186C165.652 47.4131 165.735 47.5279 165.791 47.6559C165.847 47.7838 165.876 47.9221 165.876 48.0618C165.876 48.2016 165.847 48.3398 165.791 48.4677C165.735 48.5957 165.652 48.7105 165.549 48.805C165.447 48.8995 165.325 48.9715 165.193 49.0166C165.06 49.0616 164.92 49.0787 164.781 49.0667Z" fill="#263238"/>
<path d="M164.781 56.1041H110.534C110.266 56.1041 110.01 55.9978 109.821 55.8087C109.632 55.6195 109.525 55.363 109.525 55.0955C109.525 54.828 109.632 54.5715 109.821 54.3823C110.01 54.1932 110.266 54.0869 110.534 54.0869H164.781C165.049 54.0869 165.305 54.1932 165.494 54.3823C165.683 54.5715 165.79 54.828 165.79 55.0955C165.79 55.363 165.683 55.6195 165.494 55.8087C165.305 55.9978 165.049 56.1041 164.781 56.1041Z" fill="#263238"/>
<path d="M164.781 63.1422H110.534C110.402 63.1422 110.27 63.1161 110.148 63.0654C110.026 63.0147 109.914 62.9404 109.821 62.8468C109.727 62.7531 109.653 62.6419 109.602 62.5196C109.551 62.3972 109.525 62.266 109.525 62.1336C109.525 62.0011 109.551 61.87 109.602 61.7476C109.653 61.6252 109.727 61.5141 109.821 61.4204C109.914 61.3267 110.026 61.2525 110.148 61.2018C110.27 61.1511 110.402 61.125 110.534 61.125H164.781C164.914 61.125 165.045 61.1511 165.167 61.2018C165.289 61.2525 165.401 61.3267 165.494 61.4204C165.588 61.5141 165.662 61.6252 165.713 61.7476C165.764 61.87 165.79 62.0011 165.79 62.1336C165.79 62.266 165.764 62.3972 165.713 62.5196C165.662 62.6419 165.588 62.7531 165.494 62.8468C165.401 62.9404 165.289 63.0147 165.167 63.0654C165.045 63.1161 164.914 63.1422 164.781 63.1422Z" fill="#263238"/>
<path d="M164.781 70.1726H110.534C110.395 70.1846 110.254 70.1676 110.122 70.1225C109.99 70.0775 109.868 70.0055 109.765 69.911C109.662 69.8165 109.58 69.7016 109.524 69.5737C109.468 69.4458 109.438 69.3075 109.438 69.1678C109.438 69.028 109.468 68.8898 109.524 68.7618C109.58 68.6339 109.662 68.519 109.765 68.4246C109.868 68.3301 109.99 68.258 110.122 68.213C110.254 68.1679 110.395 68.1509 110.534 68.1629H164.781C164.92 68.1509 165.06 68.1679 165.193 68.213C165.325 68.258 165.447 68.3301 165.549 68.4246C165.652 68.519 165.735 68.6339 165.791 68.7618C165.847 68.8898 165.876 69.028 165.876 69.1678C165.876 69.3075 165.847 69.4458 165.791 69.5737C165.735 69.7016 165.652 69.8165 165.549 69.911C165.447 70.0055 165.325 70.0775 165.193 70.1225C165.06 70.1676 164.92 70.1846 164.781 70.1726Z" fill="#263238"/>
<path d="M165.76 74.9014H110.474V113.459H165.76V74.9014Z" fill="#92E3A9"/>
<path opacity="0.6" d="M165.76 74.9014H110.474V113.459H165.76V74.9014Z" fill="white"/>
<path d="M59.5741 29.963C59.7274 29.4949 59.808 29.0061 59.8132 28.5136C59.8132 26.7131 57.9903 26.6085 56.1897 26.6085H55.7415V26.1826H63.5487V26.6085C61.5166 26.6085 60.7994 27.901 60.1419 29.836L55.988 42.2827C55.6742 43.2016 55.4128 43.889 54.4341 43.889H54.3519L50.6836 32.0025L47.2469 42.2827C46.9257 43.2016 46.6642 43.889 45.6855 43.889H45.6182L40.2839 26.6085H38.4087V26.1826H45.2746V26.6085H43.3246L47.2843 40.2431H47.4412L50.4296 31.1508L49.0325 26.6085H47.1573V26.1826H54.0231V26.6085H52.0657L56.0329 40.2431H56.1897L59.5741 29.963Z" fill="#263238"/>
<path d="M185.079 21.7749H128.733V172.921H185.079V21.7749Z" fill="#92E3A9"/>
<path opacity="0.4" d="M185.079 21.7749H128.733V172.921H185.079V21.7749Z" fill="white"/>
<path d="M268.284 16.1191H132.947V187.788H268.284V16.1191Z" fill="white" stroke="#263238" stroke-width="0.75" stroke-linecap="round" stroke-linejoin="round"/>
<path d="M268.284 16.1191H132.947V26.3619H268.284V16.1191Z" fill="#263238" stroke="#263238" stroke-width="0.75" stroke-linecap="round" stroke-linejoin="round"/>
<path d="M226.058 40.4297H178.535V129.268H226.058V40.4297Z" fill="#92E3A9"/>
<path opacity="0.6" d="M226.058 40.4297H178.535V129.268H226.058V40.4297Z" fill="white"/>
<path d="M264.422 135.843H136.817V184.397H264.422V135.843Z" fill="#92E3A9"/>
<path opacity="0.6" d="M264.422 135.843H136.817V184.397H264.422V135.843Z" fill="white"/>
<path d="M264.422 20.1685H136.817V31.9353H264.422V20.1685Z" fill="#92E3A9"/>
<path opacity="0.6" d="M264.422 20.1685H136.817V31.9353H264.422V20.1685Z" fill="white"/>
<path d="M262.629 22.4546H139.111V27.6619H262.629V22.4546Z" fill="white"/>
<path d="M262.622 22.4546H248.636V27.6619H262.622V22.4546Z" fill="#263238" stroke="#263238" stroke-width="0.75" stroke-linecap="round" stroke-linejoin="round"/>
<path d="M170.549 42.4773H137.983C137.843 42.4893 137.703 42.4723 137.571 42.4272C137.438 42.3822 137.317 42.3102 137.214 42.2157C137.111 42.1212 137.029 42.0063 136.973 41.8784C136.916 41.7505 136.887 41.6122 136.887 41.4725C136.887 41.3327 136.916 41.1945 136.973 41.0665C137.029 40.9386 137.111 40.8237 137.214 40.7293C137.317 40.6348 137.438 40.5627 137.571 40.5177C137.703 40.4726 137.843 40.4556 137.983 40.4676H170.549C170.688 40.4556 170.828 40.4726 170.961 40.5177C171.093 40.5627 171.214 40.6348 171.317 40.7293C171.42 40.8237 171.502 40.9386 171.559 41.0665C171.615 41.1945 171.644 41.3327 171.644 41.4725C171.644 41.6122 171.615 41.7505 171.559 41.8784C171.502 42.0063 171.42 42.1212 171.317 42.2157C171.214 42.3102 171.093 42.3822 170.961 42.4272C170.828 42.4723 170.688 42.4893 170.549 42.4773Z" fill="#263238"/>
<path d="M170.549 49.5152H137.983C137.715 49.5152 137.459 49.409 137.27 49.2198C137.08 49.0307 136.974 48.7741 136.974 48.5066C136.974 48.2391 137.08 47.9826 137.27 47.7935C137.459 47.6043 137.715 47.498 137.983 47.498H170.549C170.816 47.498 171.073 47.6043 171.262 47.7935C171.451 47.9826 171.558 48.2391 171.558 48.5066C171.558 48.7741 171.451 49.0307 171.262 49.2198C171.073 49.409 170.816 49.5152 170.549 49.5152Z" fill="#263238"/>
<path d="M170.549 56.5452H137.983C137.843 56.5572 137.703 56.5401 137.571 56.4951C137.438 56.4501 137.317 56.378 137.214 56.2835C137.111 56.1891 137.029 56.0742 136.973 55.9463C136.916 55.8183 136.887 55.6801 136.887 55.5403C136.887 55.4006 136.916 55.2623 136.973 55.1344C137.029 55.0064 137.111 54.8916 137.214 54.7971C137.317 54.7026 137.438 54.6306 137.571 54.5856C137.703 54.5405 137.843 54.5235 137.983 54.5355H170.549C170.688 54.5235 170.828 54.5405 170.961 54.5856C171.093 54.6306 171.214 54.7026 171.317 54.7971C171.42 54.8916 171.502 55.0064 171.559 55.1344C171.615 55.2623 171.644 55.4006 171.644 55.5403C171.644 55.6801 171.615 55.8183 171.559 55.9463C171.502 56.0742 171.42 56.1891 171.317 56.2835C171.214 56.378 171.093 56.4501 170.961 56.4951C170.828 56.5401 170.688 56.5572 170.549 56.5452Z" fill="#263238"/>
<path d="M170.549 63.5826H137.983C137.85 63.5826 137.719 63.5565 137.597 63.5058C137.474 63.4551 137.363 63.3809 137.27 63.2872C137.176 63.1935 137.102 63.0824 137.051 62.96C137 62.8376 136.974 62.7065 136.974 62.574C136.974 62.4416 137 62.3104 137.051 62.188C137.102 62.0657 137.176 61.9545 137.27 61.8608C137.363 61.7672 137.474 61.6929 137.597 61.6422C137.719 61.5915 137.85 61.5654 137.983 61.5654H170.549C170.816 61.5654 171.073 61.6717 171.262 61.8608C171.451 62.05 171.558 62.3065 171.558 62.574C171.558 62.8415 171.451 63.0981 171.262 63.2872C171.073 63.4763 170.816 63.5826 170.549 63.5826Z" fill="#263238"/>
<path d="M170.549 70.6131H137.983C137.843 70.6251 137.703 70.608 137.571 70.563C137.438 70.5179 137.317 70.4459 137.214 70.3514C137.111 70.2569 137.029 70.1421 136.973 70.0141C136.916 69.8862 136.887 69.748 136.887 69.6082C136.887 69.4684 136.916 69.3302 136.973 69.2023C137.029 69.0743 137.111 68.9595 137.214 68.865C137.317 68.7705 137.438 68.6985 137.571 68.6534C137.703 68.6084 137.843 68.5913 137.983 68.6033H170.549C170.688 68.5913 170.828 68.6084 170.961 68.6534C171.093 68.6985 171.214 68.7705 171.317 68.865C171.42 68.9595 171.502 69.0743 171.559 69.2023C171.615 69.3302 171.644 69.4684 171.644 69.6082C171.644 69.748 171.615 69.8862 171.559 70.0141C171.502 70.1421 171.42 70.2569 171.317 70.3514C171.214 70.4459 171.093 70.5179 170.961 70.563C170.828 70.608 170.688 70.6251 170.549 70.6131Z" fill="#263238"/>
<path d="M170.549 77.6511H137.983C137.843 77.6632 137.703 77.6461 137.571 77.6011C137.438 77.556 137.317 77.484 137.214 77.3895C137.111 77.295 137.029 77.1802 136.973 77.0522C136.916 76.9243 136.887 76.786 136.887 76.6463C136.887 76.5065 136.916 76.3683 136.973 76.2403C137.029 76.1124 137.111 75.9976 137.214 75.9031C137.317 75.8086 137.438 75.7366 137.571 75.6915C137.703 75.6465 137.843 75.6294 137.983 75.6414H170.549C170.688 75.6294 170.828 75.6465 170.961 75.6915C171.093 75.7366 171.214 75.8086 171.317 75.9031C171.42 75.9976 171.502 76.1124 171.559 76.2403C171.615 76.3683 171.644 76.5065 171.644 76.6463C171.644 76.786 171.615 76.9243 171.559 77.0522C171.502 77.1802 171.42 77.295 171.317 77.3895C171.214 77.484 171.093 77.556 170.961 77.6011C170.828 77.6461 170.688 77.6632 170.549 77.6511Z" fill="#263238"/>
<path d="M170.549 84.6886H137.983C137.85 84.6886 137.719 84.6625 137.597 84.6118C137.474 84.5611 137.363 84.4868 137.27 84.3932C137.176 84.2995 137.102 84.1883 137.051 84.0659C137 83.9436 136.974 83.8124 136.974 83.68C136.974 83.5475 137 83.4164 137.051 83.294C137.102 83.1716 137.176 83.0604 137.27 82.9668C137.363 82.8731 137.474 82.7988 137.597 82.7482C137.719 82.6975 137.85 82.6714 137.983 82.6714H170.549C170.816 82.6714 171.073 82.7776 171.262 82.9668C171.451 83.1559 171.558 83.4125 171.558 83.68C171.558 83.9475 171.451 84.204 171.262 84.3932C171.073 84.5823 170.816 84.6886 170.549 84.6886Z" fill="#263238"/>
<path d="M170.549 90.9571H137.983C137.715 90.9571 137.459 90.8509 137.27 90.6617C137.08 90.4726 136.974 90.216 136.974 89.9485C136.974 89.681 137.08 89.4245 137.27 89.2353C137.459 89.0462 137.715 88.9399 137.983 88.9399H170.549C170.816 88.9399 171.073 89.0462 171.262 89.2353C171.451 89.4245 171.558 89.681 171.558 89.9485C171.558 90.216 171.451 90.4726 171.262 90.6617C171.073 90.8509 170.816 90.9571 170.549 90.9571Z" fill="#263238"/>
<path d="M170.549 97.9719H137.983C137.843 97.984 137.703 97.9669 137.571 97.9219C137.438 97.8768 137.317 97.8048 137.214 97.7103C137.111 97.6158 137.029 97.501 136.973 97.373C136.916 97.2451 136.887 97.1068 136.887 96.9671C136.887 96.8273 136.916 96.6891 136.973 96.5611C137.029 96.4332 137.111 96.3184 137.214 96.2239C137.317 96.1294 137.438 96.0574 137.571 96.0123C137.703 95.9673 137.843 95.9502 137.983 95.9622H170.549C170.688 95.9502 170.828 95.9673 170.961 96.0123C171.093 96.0574 171.214 96.1294 171.317 96.2239C171.42 96.3184 171.502 96.4332 171.559 96.5611C171.615 96.6891 171.644 96.8273 171.644 96.9671C171.644 97.1068 171.615 97.2451 171.559 97.373C171.502 97.501 171.42 97.6158 171.317 97.7103C171.214 97.8048 171.093 97.8768 170.961 97.9219C170.828 97.9669 170.688 97.984 170.549 97.9719Z" fill="#263238"/>
<path d="M170.549 105.01H137.983C137.715 105.01 137.459 104.904 137.27 104.714C137.08 104.525 136.974 104.269 136.974 104.001C136.974 103.734 137.08 103.477 137.27 103.288C137.459 103.099 137.715 102.993 137.983 102.993H170.549C170.816 102.993 171.073 103.099 171.262 103.288C171.451 103.477 171.558 103.734 171.558 104.001C171.558 104.269 171.451 104.525 171.262 104.714C171.073 104.904 170.816 105.01 170.549 105.01Z" fill="#263238"/>
<path d="M170.549 112.04H137.983C137.843 112.052 137.703 112.035 137.571 111.99C137.438 111.945 137.317 111.873 137.214 111.778C137.111 111.684 137.029 111.569 136.973 111.441C136.916 111.313 136.887 111.175 136.887 111.035C136.887 110.895 136.916 110.757 136.973 110.629C137.029 110.501 137.111 110.386 137.214 110.292C137.317 110.197 137.438 110.125 137.571 110.08C137.703 110.035 137.843 110.018 137.983 110.03H170.549C170.688 110.018 170.828 110.035 170.961 110.08C171.093 110.125 171.214 110.197 171.317 110.292C171.42 110.386 171.502 110.501 171.559 110.629C171.615 110.757 171.644 110.895 171.644 111.035C171.644 111.175 171.615 111.313 171.559 111.441C171.502 111.569 171.42 111.684 171.317 111.778C171.214 111.873 171.093 111.945 170.961 111.99C170.828 112.035 170.688 112.052 170.549 112.04Z" fill="#263238"/>
<path d="M170.549 119.078H137.983C137.715 119.078 137.459 118.971 137.27 118.782C137.08 118.593 136.974 118.337 136.974 118.069C136.974 117.802 137.08 117.545 137.27 117.356C137.459 117.167 137.715 117.061 137.983 117.061H170.549C170.816 117.061 171.073 117.167 171.262 117.356C171.451 117.545 171.558 117.802 171.558 118.069C171.558 118.337 171.451 118.593 171.262 118.782C171.073 118.971 170.816 119.078 170.549 119.078Z" fill="#263238"/>
<path d="M170.549 126.108H137.983C137.843 126.12 137.703 126.103 137.571 126.058C137.438 126.013 137.317 125.941 137.214 125.847C137.111 125.752 137.029 125.637 136.973 125.509C136.916 125.381 136.887 125.243 136.887 125.103C136.887 124.964 136.916 124.825 136.973 124.697C137.029 124.569 137.111 124.455 137.214 124.36C137.317 124.266 137.438 124.194 137.571 124.149C137.703 124.104 137.843 124.086 137.983 124.098H170.549C170.688 124.086 170.828 124.104 170.961 124.149C171.093 124.194 171.214 124.266 171.317 124.36C171.42 124.455 171.502 124.569 171.559 124.697C171.615 124.825 171.644 124.964 171.644 125.103C171.644 125.243 171.615 125.381 171.559 125.509C171.502 125.637 171.42 125.752 171.317 125.847C171.214 125.941 171.093 126.013 170.961 126.058C170.828 126.103 170.688 126.12 170.549 126.108Z" fill="#263238"/>
<path d="M170.549 133.146H137.983C137.843 133.158 137.703 133.141 137.571 133.096C137.438 133.051 137.317 132.979 137.214 132.884C137.111 132.79 137.029 132.675 136.973 132.547C136.916 132.419 136.887 132.281 136.887 132.141C136.887 132.001 136.916 131.863 136.973 131.735C137.029 131.607 137.111 131.492 137.214 131.398C137.317 131.303 137.438 131.231 137.571 131.186C137.703 131.141 137.843 131.124 137.983 131.136H170.549C170.688 131.124 170.828 131.141 170.961 131.186C171.093 131.231 171.214 131.303 171.317 131.398C171.42 131.492 171.502 131.607 171.559 131.735C171.615 131.863 171.644 132.001 171.644 132.141C171.644 132.281 171.615 132.419 171.559 132.547C171.502 132.675 171.42 132.79 171.317 132.884C171.214 132.979 171.093 133.051 170.961 133.096C170.828 133.141 170.688 133.158 170.549 133.146Z" fill="#263238"/>
<path d="M264.176 42.4773H231.647C231.508 42.4893 231.368 42.4723 231.235 42.4272C231.103 42.3822 230.982 42.3102 230.879 42.2157C230.776 42.1212 230.693 42.0063 230.637 41.8784C230.581 41.7505 230.552 41.6122 230.552 41.4725C230.552 41.3327 230.581 41.1945 230.637 41.0665C230.693 40.9386 230.776 40.8237 230.879 40.7293C230.982 40.6348 231.103 40.5627 231.235 40.5177C231.368 40.4726 231.508 40.4556 231.647 40.4676H264.213C264.353 40.4556 264.493 40.4726 264.625 40.5177C264.757 40.5627 264.879 40.6348 264.982 40.7293C265.085 40.8237 265.167 40.9386 265.223 41.0665C265.28 41.1945 265.309 41.3327 265.309 41.4725C265.309 41.6122 265.28 41.7505 265.223 41.8784C265.167 42.0063 265.085 42.1212 264.982 42.2157C264.879 42.3102 264.757 42.3822 264.625 42.4272C264.493 42.4723 264.353 42.4893 264.213 42.4773H264.176Z" fill="#263238"/>
<path d="M264.176 49.5152H231.647C231.514 49.5152 231.383 49.4891 231.261 49.4384C231.138 49.3878 231.027 49.3135 230.934 49.2198C230.84 49.1262 230.766 49.015 230.715 48.8926C230.664 48.7702 230.638 48.6391 230.638 48.5066C230.638 48.3742 230.664 48.243 230.715 48.1207C230.766 47.9983 230.84 47.8871 230.934 47.7935C231.027 47.6998 231.138 47.6255 231.261 47.5748C231.383 47.5241 231.514 47.498 231.647 47.498H264.213C264.48 47.498 264.737 47.6043 264.926 47.7935C265.115 47.9826 265.222 48.2391 265.222 48.5066C265.222 48.7741 265.115 49.0307 264.926 49.2198C264.737 49.409 264.48 49.5152 264.213 49.5152H264.176Z" fill="#263238"/>
<path d="M264.176 56.5452H231.647C231.508 56.5572 231.368 56.5401 231.235 56.4951C231.103 56.4501 230.982 56.378 230.879 56.2835C230.776 56.1891 230.693 56.0742 230.637 55.9463C230.581 55.8183 230.552 55.6801 230.552 55.5403C230.552 55.4006 230.581 55.2623 230.637 55.1344C230.693 55.0064 230.776 54.8916 230.879 54.7971C230.982 54.7026 231.103 54.6306 231.235 54.5856C231.368 54.5405 231.508 54.5235 231.647 54.5355H264.213C264.353 54.5235 264.493 54.5405 264.625 54.5856C264.757 54.6306 264.879 54.7026 264.982 54.7971C265.085 54.8916 265.167 55.0064 265.223 55.1344C265.28 55.2623 265.309 55.4006 265.309 55.5403C265.309 55.6801 265.28 55.8183 265.223 55.9463C265.167 56.0742 265.085 56.1891 264.982 56.2835C264.879 56.378 264.757 56.4501 264.625 56.4951C264.493 56.5401 264.353 56.5572 264.213 56.5452H264.176Z" fill="#263238"/>
<path d="M264.176 63.5826H231.647C231.514 63.5826 231.383 63.5565 231.261 63.5058C231.138 63.4551 231.027 63.3809 230.934 63.2872C230.84 63.1935 230.766 63.0824 230.715 62.96C230.664 62.8376 230.638 62.7065 230.638 62.574C230.638 62.4416 230.664 62.3104 230.715 62.188C230.766 62.0657 230.84 61.9545 230.934 61.8608C231.027 61.7672 231.138 61.6929 231.261 61.6422C231.383 61.5915 231.514 61.5654 231.647 61.5654H264.213C264.48 61.5654 264.737 61.6717 264.926 61.8608C265.115 62.05 265.222 62.3065 265.222 62.574C265.222 62.8415 265.115 63.0981 264.926 63.2872C264.737 63.4763 264.48 63.5826 264.213 63.5826H264.176Z" fill="#263238"/>
<path d="M264.176 70.6131H231.647C231.508 70.6251 231.368 70.608 231.235 70.563C231.103 70.5179 230.982 70.4459 230.879 70.3514C230.776 70.2569 230.693 70.1421 230.637 70.0141C230.581 69.8862 230.552 69.748 230.552 69.6082C230.552 69.4684 230.581 69.3302 230.637 69.2023C230.693 69.0743 230.776 68.9595 230.879 68.865C230.982 68.7705 231.103 68.6985 231.235 68.6534C231.368 68.6084 231.508 68.5913 231.647 68.6033H264.213C264.353 68.5913 264.493 68.6084 264.625 68.6534C264.757 68.6985 264.879 68.7705 264.982 68.865C265.085 68.9595 265.167 69.0743 265.223 69.2023C265.28 69.3302 265.309 69.4684 265.309 69.6082C265.309 69.748 265.28 69.8862 265.223 70.0141C265.167 70.1421 265.085 70.2569 264.982 70.3514C264.879 70.4459 264.757 70.5179 264.625 70.563C264.493 70.608 264.353 70.6251 264.213 70.6131H264.176Z" fill="#263238"/>
<path d="M264.176 77.6511H231.647C231.508 77.6632 231.368 77.6461 231.235 77.6011C231.103 77.556 230.982 77.484 230.879 77.3895C230.776 77.295 230.693 77.1802 230.637 77.0522C230.581 76.9243 230.552 76.786 230.552 76.6463C230.552 76.5065 230.581 76.3683 230.637 76.2403C230.693 76.1124 230.776 75.9976 230.879 75.9031C230.982 75.8086 231.103 75.7366 231.235 75.6915C231.368 75.6465 231.508 75.6294 231.647 75.6414H264.213C264.353 75.6294 264.493 75.6465 264.625 75.6915C264.757 75.7366 264.879 75.8086 264.982 75.9031C265.085 75.9976 265.167 76.1124 265.223 76.2403C265.28 76.3683 265.309 76.5065 265.309 76.6463C265.309 76.786 265.28 76.9243 265.223 77.0522C265.167 77.1802 265.085 77.295 264.982 77.3895C264.879 77.484 264.757 77.556 264.625 77.6011C264.493 77.6461 264.353 77.6632 264.213 77.6511H264.176Z" fill="#263238"/>
<path d="M264.176 84.6886H231.647C231.514 84.6886 231.383 84.6625 231.261 84.6118C231.138 84.5611 231.027 84.4868 230.934 84.3932C230.84 84.2995 230.766 84.1883 230.715 84.0659C230.664 83.9436 230.638 83.8124 230.638 83.68C230.638 83.5475 230.664 83.4164 230.715 83.294C230.766 83.1716 230.84 83.0604 230.934 82.9668C231.027 82.8731 231.138 82.7988 231.261 82.7482C231.383 82.6975 231.514 82.6714 231.647 82.6714H264.213C264.48 82.6714 264.737 82.7776 264.926 82.9668C265.115 83.1559 265.222 83.4125 265.222 83.68C265.222 83.9475 265.115 84.204 264.926 84.3932C264.737 84.5823 264.48 84.6886 264.213 84.6886H264.176Z" fill="#263238"/>
<path d="M264.445 89.4102H230.833V127.968H264.445V89.4102Z" fill="#92E3A9"/>
<path opacity="0.6" d="M264.445 89.4102H230.833V127.968H264.445V89.4102Z" fill="white"/>
<path d="M281.202 159.234C281.001 151.644 281.591 138.689 274.927 133.355C269.077 128.67 264.527 135.028 262.891 140.153C258.909 152.593 259.335 199.406 260.366 208.835C260.366 208.835 259.349 199.391 251.931 203.441C244.512 207.49 255.666 228.745 255.666 228.745C255.666 228.745 246.895 222.335 242.846 227.729C238.797 233.123 247.911 239.204 247.911 239.204C247.911 239.204 239.477 236.844 239.477 239.204C239.477 241.565 242.174 243.59 249.936 244.606H291.774C291.774 244.606 298.498 240.87 297.175 236.844C295.853 232.817 288.711 235.148 288.711 235.148C288.711 235.148 299.506 221.991 298.826 216.253C298.147 210.516 284.318 217.262 284.318 217.262C284.318 217.262 295.121 189.933 293.096 177.785C291.497 168.215 284.071 174.797 280.029 178.442C280.98 172.086 281.372 165.659 281.202 159.234Z" fill="#92E3A9"/>
<path opacity="0.1" d="M281.202 159.234C281.001 151.644 281.591 138.689 274.927 133.355C269.077 128.67 264.527 135.028 262.891 140.153C258.909 152.593 259.335 199.406 260.366 208.835C260.366 208.835 259.349 199.391 251.931 203.441C244.512 207.49 255.666 228.745 255.666 228.745C255.666 228.745 246.895 222.335 242.846 227.729C238.797 233.123 247.911 239.204 247.911 239.204C247.911 239.204 239.477 236.844 239.477 239.204C239.477 241.565 242.174 243.59 249.936 244.606H291.774C291.774 244.606 298.498 240.87 297.175 236.844C295.853 232.817 288.711 235.148 288.711 235.148C288.711 235.148 299.506 221.991 298.826 216.253C298.147 210.516 284.318 217.262 284.318 217.262C284.318 217.262 295.121 189.933 293.096 177.785C291.497 168.215 284.071 174.797 280.029 178.442C280.98 172.086 281.372 165.659 281.202 159.234Z" fill="black"/>
<path d="M267.747 243.702L270.825 151.472" stroke="#92E3A9" stroke-width="1.72695" stroke-linecap="round" stroke-linejoin="round"/>
<path d="M269.473 205.465L285.334 190.613" stroke="#92E3A9" stroke-width="1.72695" stroke-linecap="round" stroke-linejoin="round"/>
<path d="M276.899 198.711L280.268 189.268" stroke="#92E3A9" stroke-width="1.72695" stroke-linecap="round" stroke-linejoin="round"/>
<path d="M256.316 216.933L268.232 229.641" stroke="#92E3A9" stroke-width="1.72695" stroke-linecap="round" stroke-linejoin="round"/>
<path d="M288.71 224.359L268.464 234.819" stroke="#92E3A9" stroke-width="1.72695" stroke-linecap="round" stroke-linejoin="round"/>
<path d="M278.505 229.515L285.333 230.097" stroke="#92E3A9" stroke-width="1.72695" stroke-linecap="round" stroke-linejoin="round"/>
<path d="M128.988 244.964C128.988 247.743 102.503 250 69.8397 250C37.1764 250 10.6841 247.758 10.6841 244.964C10.6841 242.17 37.1689 239.929 69.8397 239.929C102.51 239.929 128.988 242.185 128.988 244.964Z" fill="#263238"/>
<path d="M40.3886 152.48C40.3886 152.48 44.9609 150.164 46.9482 152.152C48.9354 154.139 48.136 175.401 48.7337 182.155C49.0958 186.184 49.8388 190.168 50.9526 194.057C50.9526 194.057 44.3931 192.869 39.4248 190.321C39.4248 190.321 35.0543 169.103 40.3886 152.48Z" fill="#263238" stroke="#263238" stroke-width="0.75" stroke-linecap="round" stroke-linejoin="round"/>
<path d="M131.424 200.631C130.886 200.631 130.364 200.448 129.943 200.114C129.522 199.779 129.227 199.312 129.105 198.789C128.983 198.265 129.041 197.716 129.271 197.23C129.501 196.743 129.888 196.349 130.37 196.111L151.969 186.399L168.734 167.116C169.141 166.633 169.724 166.331 170.353 166.277C170.983 166.223 171.609 166.421 172.092 166.828C172.576 167.236 172.877 167.818 172.931 168.448C172.985 169.078 172.787 169.703 172.38 170.187L155.293 189.85C155.089 190.102 154.834 190.308 154.546 190.456L132.492 200.385C132.161 200.552 131.794 200.637 131.424 200.631Z" fill="white" stroke="#263238" stroke-width="0.75" stroke-linecap="round" stroke-linejoin="round"/>
<path d="M146.194 192.211L148.562 191.135" stroke="#263238" stroke-width="0.75" stroke-linecap="round" stroke-linejoin="round"/>
<path d="M135.271 197.18L144.632 192.921" stroke="#263238" stroke-width="0.75" stroke-linecap="round" stroke-linejoin="round"/>
<path d="M167.284 173.415L161.046 180.467" stroke="#263238" stroke-width="0.75" stroke-linecap="round" stroke-linejoin="round"/>
<path d="M160.037 181.476L158.625 183.082" stroke="#263238" stroke-width="0.75" stroke-linecap="round" stroke-linejoin="round"/>
<path d="M134.3 209.197C136.942 198.054 130.051 186.88 118.908 184.238C107.766 181.596 96.5909 188.487 93.9489 199.629C91.3068 210.772 98.1979 221.946 109.34 224.589C120.483 227.231 131.658 220.34 134.3 209.197Z" fill="#92E3A9" stroke="#263238" stroke-width="0.747671" stroke-linecap="round" stroke-linejoin="round"/>
<path d="M62.3006 127.669C62.3006 127.669 65.2891 134.677 65.9166 136.044C66.5442 137.411 67.1419 137.785 66.9999 138.218C66.858 138.652 65.3339 139.152 65.3339 139.152C65.5455 141.308 65.1713 143.482 64.2506 145.443C62.7564 148.431 59.8427 149.993 59.5588 151.868C59.3916 153.671 59.3666 155.485 59.4841 157.292L55.0762 153.676C55.0762 153.676 56.3014 150.135 55.2181 147.535C54.2997 145.407 52.6628 143.67 50.5935 142.626C48.0172 140.935 46.1839 138.324 45.4684 135.327C44.8184 131.853 46.8356 128.17 49.5102 125.57C52.1849 122.97 57.4594 123.478 58.0422 123.695C58.6249 123.911 56.5928 122.2 58.4008 121.812C60.2088 121.423 61.2921 124.053 61.3892 124.487C61.4863 124.92 62.0392 122.611 62.6219 124.128C63.2046 125.645 62.3006 127.669 62.3006 127.669Z" fill="white"/>
<mask id="mask0_837_418" style="mask-type:luminance" maskUnits="userSpaceOnUse" x="45" y="121" width="23" height="37">
<path d="M62.3006 127.669C62.3006 127.669 65.2891 134.677 65.9166 136.044C66.5442 137.411 67.1419 137.785 66.9999 138.218C66.858 138.652 65.3339 139.152 65.3339 139.152C65.5455 141.308 65.1713 143.482 64.2506 145.443C62.7564 148.431 59.8427 149.993 59.5588 151.868C59.3916 153.671 59.3666 155.485 59.4841 157.292L55.0762 153.676C55.0762 153.676 56.3014 150.135 55.2181 147.535C54.2997 145.407 52.6628 143.67 50.5935 142.626C48.0172 140.935 46.1839 138.324 45.4684 135.327C44.8184 131.853 46.8356 128.17 49.5102 125.57C52.1849 122.97 57.4594 123.478 58.0422 123.695C58.6249 123.911 56.5928 122.2 58.4008 121.812C60.2088 121.423 61.2921 124.053 61.3892 124.487C61.4863 124.92 62.0392 122.611 62.6219 124.128C63.2046 125.645 62.3006 127.669 62.3006 127.669Z" fill="white"/>
</mask>
<g mask="url(#mask0_837_418)">
<g style="mix-blend-mode:multiply" opacity="0.5">
<path d="M56.914 155.207C56.8879 154.706 56.8305 154.207 56.7422 153.713C56.4508 152.398 58.2364 148.304 58.7893 143.485C59.3421 138.666 55.5692 131.935 55.5692 131.935L52.805 123.918C51.5773 124.182 50.4408 124.764 49.5102 125.607C46.8356 128.207 44.8184 131.89 45.4684 135.364C46.1839 138.361 48.0172 140.972 50.5935 142.663C52.6628 143.707 54.2997 145.444 55.2181 147.572C56.3014 150.172 55.0762 153.713 55.0762 153.713L56.914 155.207Z" fill="#92E3A9"/>
</g>
</g>
<path d="M62.3006 127.669C62.3006 127.669 65.2891 134.677 65.9166 136.044C66.5442 137.411 67.1419 137.785 66.9999 138.218C66.858 138.652 65.3339 139.152 65.3339 139.152C65.5455 141.308 65.1713 143.482 64.2506 145.443C62.7564 148.431 59.8427 149.993 59.5588 151.868C59.3916 153.671 59.3666 155.485 59.4841 157.292L55.0762 153.676C55.0762 153.676 56.3014 150.135 55.2181 147.535C54.2997 145.407 52.6628 143.67 50.5935 142.626C48.0172 140.935 46.1839 138.324 45.4684 135.327C44.8184 131.853 46.8356 128.17 49.5102 125.57C52.1849 122.97 57.4594 123.478 58.0422 123.695C58.6249 123.911 56.5928 122.2 58.4008 121.812C60.2088 121.423 61.2921 124.053 61.3892 124.487C61.4863 124.92 62.0392 122.611 62.6219 124.128C63.2046 125.645 62.3006 127.669 62.3006 127.669Z" stroke="#263238" stroke-width="0.75" stroke-linecap="round" stroke-linejoin="round"/>
<path d="M62.5851 131.397C62.5851 131.397 61.2776 131.039 60.8443 132.144C60.7082 132.398 60.6314 132.679 60.6197 132.966C60.6081 133.253 60.6619 133.539 60.7771 133.803" stroke="#263238" stroke-width="0.75" stroke-linecap="round" stroke-linejoin="round"/>
<path d="M64.1091 142.41C64.1091 142.41 62.8092 143.06 62.0098 142.193" stroke="#263238" stroke-width="0.75" stroke-linecap="round" stroke-linejoin="round"/>
<path d="M61.5612 136.351L55.5396 138.958" stroke="#263238" stroke-width="0.75" stroke-linecap="round" stroke-linejoin="round"/>
<path d="M53.022 142.125C52.209 143.323 51.8295 144.762 51.9462 146.205C52.1255 148.67 52.0657 152.032 50.8031 151.733C49.5405 151.434 51.4008 147.647 51.4008 146.085C51.3262 144.895 51.0535 143.726 50.5939 142.626" stroke="#263238" stroke-width="0.75" stroke-linecap="round" stroke-linejoin="round"/>
<path d="M65.9542 134.453L64.5347 135.065" stroke="#263238" stroke-width="0.75" stroke-linecap="round" stroke-linejoin="round"/>
<path d="M63.631 135.857C63.8177 136.492 63.8177 137.053 63.631 137.105C63.4442 137.157 63.1454 136.687 62.9586 136.052C62.7718 135.417 62.7793 134.856 62.9586 134.797C63.1379 134.737 63.4517 135.215 63.631 135.857Z" fill="#263238"/>
<path d="M64.3859 135.858C64.8865 137.352 64.7595 138.734 64.1021 138.958C63.4446 139.182 62.5032 138.144 62.0027 136.657C61.5021 135.17 61.6291 133.773 62.2866 133.549C62.944 133.325 63.8854 134.363 64.3859 135.858Z" stroke="#263238" stroke-width="0.75" stroke-linecap="round" stroke-linejoin="round"/>
<path d="M54.4046 141.647C54.4046 141.647 53.2167 140.213 54.2851 140.332C54.6206 140.402 54.9311 140.56 55.1836 140.792C55.4362 141.023 55.6214 141.319 55.7195 141.647" stroke="#263238" stroke-width="0.5" stroke-linecap="round" stroke-linejoin="round"/>
<path d="M87.8075 166.175L83.6162 169.141L84.2662 172.607L89.0402 170.732L87.8075 166.175Z" fill="white" stroke="#263238" stroke-width="0.75" stroke-linecap="round" stroke-linejoin="round"/>
<path d="M84.0489 168.274L85.9316 175.282C85.9316 175.282 73.2607 181.064 70.7579 182.85C68.2551 184.635 66.2753 184.15 66.2753 184.15L64.6167 176.051C64.6167 176.051 66.4172 176.918 70.2499 175.259C74.0825 173.601 84.0489 168.274 84.0489 168.274Z" fill="white" stroke="#263238" stroke-width="0.75" stroke-linecap="round" stroke-linejoin="round"/>
<path d="M90.2727 186.51C90.018 186.484 89.7813 186.367 89.6058 186.18C89.4302 185.994 89.3275 185.75 89.3164 185.494L87.6429 157.769C87.6259 157.623 87.6393 157.474 87.6822 157.333C87.7251 157.192 87.7966 157.061 87.8923 156.948C87.988 156.836 88.1058 156.744 88.2383 156.679C88.3709 156.615 88.5154 156.578 88.6629 156.571C88.8104 156.564 88.9576 156.588 89.0955 156.641C89.2334 156.693 89.359 156.774 89.4645 156.877C89.5699 156.98 89.653 157.104 89.7085 157.241C89.764 157.378 89.7907 157.525 89.7871 157.672L91.4606 185.39C91.4676 185.531 91.4467 185.672 91.3991 185.806C91.3514 185.939 91.2779 186.061 91.1828 186.166C91.0878 186.271 90.973 186.356 90.845 186.416C90.717 186.477 90.5784 186.511 90.4371 186.518L90.2727 186.51Z" fill="#263238" stroke="#263238" stroke-width="0.75" stroke-linecap="round" stroke-linejoin="round"/>
<path d="M87.0823 165.517C86.8162 165.506 86.5637 165.396 86.3738 165.209C86.1838 165.023 86.0699 164.772 86.0541 164.506C86.0383 164.24 86.1217 163.978 86.2882 163.77C86.4547 163.562 86.6924 163.423 86.9553 163.38L91.1465 162.872C91.2919 162.843 91.4417 162.844 91.5866 162.875C91.7316 162.907 91.8685 162.967 91.9888 163.054C92.1091 163.141 92.2101 163.252 92.2856 163.379C92.3611 163.507 92.4094 163.649 92.4275 163.796C92.4456 163.943 92.433 164.092 92.3906 164.234C92.3483 164.376 92.277 164.508 92.1813 164.621C92.0855 164.735 91.9674 164.827 91.8344 164.892C91.7013 164.958 91.5561 164.995 91.408 165.002L87.2168 165.51L87.0823 165.517Z" fill="white" stroke="#263238" stroke-width="0.75" stroke-linecap="round" stroke-linejoin="round"/>
<path d="M87.2991 167.684C87.033 167.672 86.7805 167.563 86.5906 167.376C86.4006 167.189 86.2867 166.939 86.2709 166.673C86.2551 166.407 86.3385 166.144 86.505 165.937C86.6715 165.729 86.9092 165.59 87.1721 165.547L91.3633 165.039C91.6463 165.007 91.9304 165.088 92.1541 165.264C92.3778 165.441 92.5232 165.698 92.5587 165.98C92.5754 166.12 92.5645 166.261 92.5266 166.396C92.4887 166.531 92.4245 166.657 92.3378 166.768C92.2511 166.878 92.1435 166.97 92.0211 167.039C91.8988 167.108 91.7641 167.152 91.6248 167.168L87.4336 167.676L87.2991 167.684Z" fill="white" stroke="#263238" stroke-width="0.75" stroke-linecap="round" stroke-linejoin="round"/>
<path d="M87.5311 169.656C87.2688 169.655 87.0167 169.554 86.8263 169.373C86.6359 169.193 86.5214 168.947 86.5061 168.685C86.4909 168.423 86.5761 168.165 86.7443 167.964C86.9125 167.763 87.1512 167.633 87.4116 167.601L91.4235 167.116C91.5588 167.098 91.6962 167.107 91.828 167.143C91.9597 167.178 92.083 167.24 92.1908 167.323C92.2987 167.407 92.3888 167.511 92.4561 167.63C92.5233 167.748 92.5664 167.879 92.5827 168.015C92.599 168.15 92.5883 168.287 92.5511 168.419C92.514 168.55 92.4511 168.673 92.3662 168.779C92.2813 168.886 92.1761 168.975 92.0566 169.041C91.9371 169.107 91.8057 169.148 91.6701 169.163L87.6581 169.649L87.5311 169.656Z" fill="white" stroke="#263238" stroke-width="0.75" stroke-linecap="round" stroke-linejoin="round"/>
<path d="M88.2033 171.546C87.9966 171.526 87.8052 171.428 87.6668 171.273C87.5285 171.118 87.4533 170.917 87.4562 170.71C87.4145 170.486 87.4561 170.254 87.573 170.059C87.69 169.864 87.8743 169.718 88.0913 169.649L90.9302 169.193C91.3337 169.141 91.6773 169.507 91.7371 170.03C91.7822 170.254 91.7421 170.487 91.6247 170.683C91.5073 170.879 91.3209 171.024 91.1021 171.091L88.2706 171.539L88.2033 171.546Z" fill="white" stroke="#263238" stroke-width="0.75" stroke-linecap="round" stroke-linejoin="round"/>
<path d="M86.6643 168.132C86.6519 168.336 86.5653 168.528 86.4208 168.673C86.2762 168.818 86.0838 168.904 85.8798 168.917C85.6588 168.977 85.4232 168.954 85.2179 168.852C85.0126 168.75 84.852 168.576 84.7666 168.364L84.1092 165.57C84.0196 165.174 84.3557 164.785 84.8563 164.695C85.0763 164.639 85.3094 164.663 85.5126 164.765C85.7159 164.867 85.8755 165.038 85.962 165.248L86.6269 168.05C86.6269 168.05 86.6568 168.102 86.6643 168.132Z" fill="white" stroke="#263238" stroke-width="0.75" stroke-linecap="round" stroke-linejoin="round"/>
<path d="M53.4848 151.509C53.4848 151.509 58.6174 154.617 61.0007 158.517C63.384 162.417 65.4086 168.229 66.5666 173.332C67.7246 178.435 68.6585 191.756 69.3832 194.505C69.7338 195.964 70.2686 197.372 70.9745 198.696C66.7927 200.249 62.3518 200.984 57.8927 200.863C50.8102 200.572 49.7269 198.838 49.7269 198.838C49.7269 198.838 47.3437 183.089 47.5603 170.583C47.777 158.076 53.4848 151.509 53.4848 151.509Z" fill="white"/>
<mask id="mask1_837_418" style="mask-type:luminance" maskUnits="userSpaceOnUse" x="47" y="151" width="24" height="50">
<path d="M53.4848 151.509C53.4848 151.509 58.6174 154.617 61.0007 158.517C63.384 162.417 65.4086 168.229 66.5666 173.332C67.7246 178.435 68.6585 191.756 69.3832 194.505C69.7338 195.964 70.2686 197.372 70.9745 198.696C66.7927 200.249 62.3518 200.984 57.8927 200.863C50.8102 200.572 49.7269 198.838 49.7269 198.838C49.7269 198.838 47.3437 183.089 47.5603 170.583C47.777 158.076 53.4848 151.509 53.4848 151.509Z" fill="white"/>
</mask>
<g mask="url(#mask1_837_418)">
<g style="mix-blend-mode:multiply" opacity="0.5">
<path d="M50.4591 165.667C50.4591 165.667 49.712 166.84 50.3096 163.769C50.7933 161.622 51.5807 159.554 52.6481 157.628L56.152 161.573L58.3485 161.722L57.7657 162.746L62.0018 165.376L59.9921 163.007L60.134 159.391L56.7422 160.437C56.7422 160.437 54.5457 156.493 53.963 155.208C53.5745 154.326 54.8744 153.579 55.7859 153.183C55.0474 152.608 54.2793 152.072 53.4848 151.577C53.4848 151.577 47.777 158.151 47.5603 170.65C47.3885 180.564 48.8528 192.51 49.4654 197.038L60.672 196.418L50.4591 165.667Z" fill="#92E3A9"/>
</g>
</g>
<path d="M53.4848 151.509C53.4848 151.509 58.6174 154.617 61.0007 158.517C63.384 162.417 65.4086 168.229 66.5666 173.332C67.7246 178.435 68.6585 191.756 69.3832 194.505C69.7338 195.964 70.2686 197.372 70.9745 198.696C66.7927 200.249 62.3518 200.984 57.8927 200.863C50.8102 200.572 49.7269 198.838 49.7269 198.838C49.7269 198.838 47.3437 183.089 47.5603 170.583C47.777 158.076 53.4848 151.509 53.4848 151.509Z" stroke="#263238" stroke-width="0.75" stroke-linecap="round" stroke-linejoin="round"/>
<path d="M51.9688 154.042L57.318 160.467L60.1346 159.384L59.9926 163L64.2511 168.132" stroke="#263238" stroke-width="0.75" stroke-linecap="round" stroke-linejoin="round"/>
<path d="M48.6812 167.662C48.6812 167.662 49.2788 173.638 51.0644 175.058" stroke="#263238" stroke-width="0.5" stroke-linecap="round" stroke-linejoin="round"/>
<path d="M49.0396 174.109C49.0396 174.109 49.7866 176.35 51.6619 177.097" stroke="#263238" stroke-width="0.5" stroke-linecap="round" stroke-linejoin="round"/>
<path d="M64.5497 170.882L61.4492 172.077L61.9274 173.392L64.7888 172.316" stroke="#263238" stroke-width="0.5" stroke-linecap="round" stroke-linejoin="round"/>
<path d="M85.4615 193.392C85.205 193.391 84.9572 193.299 84.7627 193.132C84.5682 192.965 84.4398 192.734 84.4006 192.48L80.5306 167.348C80.5095 167.208 80.5162 167.065 80.5502 166.928C80.5842 166.791 80.6449 166.662 80.7288 166.548C80.8128 166.434 80.9183 166.338 81.0394 166.265C81.1605 166.192 81.2948 166.143 81.4346 166.122C81.5744 166.101 81.717 166.108 81.8542 166.142C81.9915 166.176 82.1207 166.237 82.2345 166.321C82.3482 166.405 82.4444 166.51 82.5173 166.631C82.5903 166.752 82.6388 166.887 82.6599 167.026L86.5298 192.159C86.5706 192.441 86.4986 192.728 86.3294 192.957C86.1602 193.187 85.9074 193.34 85.6259 193.384L85.4615 193.392Z" fill="#263238" stroke="#263238" stroke-width="0.75" stroke-linecap="round" stroke-linejoin="round"/>
<path d="M62.3007 127.669C62.3007 127.669 63.1674 125.645 62.5921 124.128C62.0168 122.612 61.4341 124.92 61.3594 124.487C61.2847 124.053 60.2089 121.454 58.371 121.812C56.5331 122.171 58.5876 123.912 58.0124 123.695C57.4371 123.478 52.1551 122.948 49.4805 125.57C46.8058 128.192 44.7886 131.853 45.4386 135.327C46.1542 138.325 47.9874 140.936 50.5638 142.626C51.916 143.32 53.0955 144.308 54.0154 145.518C54.7918 144.894 55.5005 144.19 56.1297 143.418C55.7541 143.538 55.3556 143.568 54.9663 143.506C54.577 143.444 54.2078 143.291 53.8884 143.06C52.7304 142.26 52.1551 139.952 53.6045 138.794C55.0538 137.636 56.4509 140.266 56.4509 140.266C57.9451 141.065 57.3848 138.966 56.8095 138.024C56.2343 137.083 57.0262 136.067 57.2429 134.7C57.4595 133.332 55.5843 132.817 55.8009 131.442C56.0176 130.068 62.3007 127.669 62.3007 127.669Z" fill="#263238" stroke="#263238" stroke-width="0.75" stroke-linecap="round" stroke-linejoin="round"/>
<path d="M58.8197 128.64C58.8197 128.64 56.1973 127.325 54.5238 129.387C52.8503 131.449 53.2164 134.878 51.9015 136.903C51.594 137.461 51.1664 137.943 50.6495 138.315C50.1327 138.688 49.5396 138.94 48.9131 139.055" stroke="white" stroke-width="0.5" stroke-linecap="round" stroke-linejoin="round"/>
<path d="M47.3667 135.446C48.1566 135.531 48.9482 135.303 49.5723 134.812C50.1964 134.32 50.6034 133.604 50.7063 132.816C51.3039 129.828 54.6435 125.539 57.9905 125.42C61.3375 125.3 61.091 127.661 61.091 127.661" stroke="white" stroke-width="0.5" stroke-linecap="round" stroke-linejoin="round"/>
<path d="M76.25 177.015L78.3419 175.641C78.3419 175.641 80.1499 172.316 80.2918 172.099C80.4338 171.883 84.8492 169.716 85.2078 170.007C85.411 170.185 85.5692 170.408 85.6692 170.659C85.7692 170.91 85.8082 171.181 85.783 171.449C85.6411 171.815 85.1331 172.196 85.1331 172.54C85.1331 172.884 85.7158 175.641 85.7158 176.365C85.7158 177.09 82.7274 178.315 81.5245 178.681C80.3217 179.047 78.708 179.04 78.3419 179.331L77.3333 180.123L76.25 177.015Z" fill="white" stroke="#263238" stroke-width="0.75" stroke-linecap="round" stroke-linejoin="round"/>
<path d="M51.9681 162.424C51.9681 162.424 50.0929 162.925 50.7429 168.199C51.3929 173.474 56.6674 191.248 58.5426 193.422C60.4179 195.596 78.7144 183.448 78.7144 183.448L76.4731 176.507C76.4731 176.507 64.116 181.348 63.1074 181.565C62.0988 181.782 59.2001 166.033 58.1915 164.083" fill="white"/>
<mask id="mask2_837_418" style="mask-type:luminance" maskUnits="userSpaceOnUse" x="50" y="162" width="29" height="32">
<path d="M51.9681 162.424C51.9681 162.424 50.0929 162.925 50.7429 168.199C51.3929 173.474 56.6674 191.248 58.5426 193.422C60.4179 195.596 78.7144 183.448 78.7144 183.448L76.4731 176.507C76.4731 176.507 64.116 181.348 63.1074 181.565C62.0988 181.782 59.2001 166.033 58.1915 164.083" fill="white"/>
</mask>
<g mask="url(#mask2_837_418)">
<g style="mix-blend-mode:multiply" opacity="0.5">
<path d="M78.3784 182.439C74.5757 183.642 65.7748 186.384 64.6317 186.264C63.1375 186.122 62.7341 185.241 61.8525 184.075C60.9709 182.91 59.6635 187.579 58.4905 188.02C57.3176 188.461 58.1992 182.79 58.6399 181.587C59.0807 180.385 57.6164 182.178 57.6164 182.178C57.6164 182.178 54.6952 176.201 53.2309 172.092C52.3027 169.409 51.571 166.662 51.0419 163.874L50.7132 164.68C50.5481 165.838 50.5481 167.012 50.7132 168.169C51.3632 173.444 56.6377 191.217 58.5129 193.392C60.3882 195.566 78.6847 183.418 78.6847 183.418L78.3784 182.439Z" fill="#92E3A9"/>
</g>
</g>
<path d="M51.9681 162.424C51.9681 162.424 50.0929 162.925 50.7429 168.199C51.3929 173.474 56.6674 191.248 58.5426 193.422C60.4179 195.596 78.7144 183.448 78.7144 183.448L76.4731 176.507C76.4731 176.507 64.116 181.348 63.1074 181.565C62.0988 181.782 59.2001 166.033 58.1915 164.083" stroke="#263238" stroke-width="0.75" stroke-linecap="round" stroke-linejoin="round"/>
<path d="M63.1009 181.565C62.3643 182.041 61.7321 182.663 61.2428 183.391C60.7535 184.119 60.4173 184.939 60.2544 185.801" stroke="#263238" stroke-width="0.5" stroke-linecap="round" stroke-linejoin="round"/>
<path d="M60.3734 183.171C59.8715 183.672 59.4753 184.269 59.2084 184.926C58.9414 185.583 58.8091 186.287 58.8194 186.997" stroke="#263238" stroke-width="0.5" stroke-linecap="round" stroke-linejoin="round"/>
<path d="M41.7485 189.044C41.7485 189.044 39.7612 182.417 40.0227 168.64C40.2842 154.864 41.0836 153.541 40.4187 152.48C39.7537 151.42 27.7179 158.51 18.7527 168.842C13.0448 175.446 5.75309 185.226 5.27494 200.631C4.87898 212.951 10.7363 222.91 14.412 225.667C20.7699 230.433 29.4512 230.104 30.3776 230.104H119.104C119.104 230.104 124.796 228.117 126.119 222.955C127.441 217.792 131.946 203.082 122.548 185.465C116.377 173.907 105.327 161.49 103.467 162.417C101.606 163.343 94.6583 176.612 85.1926 184.935C76.2497 192.802 59.2307 198.577 41.7485 189.044Z" fill="#92E3A9" stroke="#263238" stroke-width="0.75" stroke-linecap="round" stroke-linejoin="round"/>
<path d="M122.57 185.465C121.248 182.999 119.709 180.496 118.087 178.091C112.903 179.876 99.903 185.211 92.686 195.864C86.4925 205.009 90.609 219.518 103.519 230.104H119.111C119.111 230.104 124.804 228.117 126.126 222.947C127.449 217.777 131.946 203.081 122.57 185.465Z" fill="white" stroke="#263238" stroke-width="0.75" stroke-linecap="round" stroke-linejoin="round"/>
<path d="M125.416 213.339C125.277 214.634 125.07 215.962 124.796 217.321" stroke="#263238" stroke-width="0.75" stroke-linecap="round" stroke-linejoin="round"/>
<path d="M120.971 187.714C120.971 187.714 126.343 196.97 125.656 210.471" stroke="#263238" stroke-width="0.75" stroke-linecap="round" stroke-linejoin="round"/>
<path d="M39.6417 228.222V214.976C32.731 212.734 28.2708 210.075 24.1094 207.579C18.1326 204.001 13.9488 194.356 16.7579 188.11C19.3354 182.342 26.4702 179.765 30.2655 182.342C33.9694 184.776 37.7945 187.02 41.7261 189.066C41.7261 189.066 39.7388 182.439 40.0003 168.663C40.2618 154.886 41.0612 153.564 40.3962 152.503C39.7313 151.442 27.6955 158.532 18.7303 168.864C13.0448 175.446 5.75309 185.226 5.27494 200.631C4.87898 212.951 10.7363 222.91 14.412 225.667C20.7699 230.433 29.4512 230.104 30.3776 230.104H39.6417C39.6417 229.425 39.6417 228.79 39.6417 228.222Z" fill="white" stroke="#263238" stroke-width="0.75" stroke-linecap="round" stroke-linejoin="round"/>
<path d="M8.09082 203.224C8.15848 204.855 8.33318 206.479 8.61379 208.087" stroke="#263238" stroke-width="0.75" stroke-linecap="round" stroke-linejoin="round"/>
<path d="M29.4508 162.484C27.2991 164.411 24.0866 166.675 22.0918 168.984C16.3765 175.588 8.56926 185.024 8.07617 200.429" stroke="#263238" stroke-width="0.75" stroke-linecap="round" stroke-linejoin="round"/>
<path d="M60.2913 228.513C60.2913 235.797 49.0847 236.462 35.1886 236.462C21.2925 236.462 10.0859 236.193 10.0859 228.513C10.0859 217.904 21.2925 207.594 35.1886 207.594C49.0847 207.594 60.2913 217.904 60.2913 228.513Z" fill="#92E3A9" stroke="#263238" stroke-width="0.75" stroke-linecap="round" stroke-linejoin="round"/>
<path d="M35.1589 207.587C22.3311 207.587 11.7671 216.418 10.2505 226.137C11.7447 232.256 22.3311 232.488 35.1589 232.488C47.9867 232.488 58.5208 231.92 60.0598 226.093C58.5507 216.388 47.9941 207.587 35.1589 207.587Z" fill="#263238" stroke="#263238" stroke-width="0.75" stroke-linecap="round" stroke-linejoin="round"/>
<path d="M125.192 229.29C125.192 235.887 115.017 236.492 102.465 236.492C89.914 236.492 79.731 236.253 79.731 229.29C79.731 219.69 89.9065 210.336 102.465 210.336C115.024 210.336 125.192 219.69 125.192 229.29Z" fill="#92E3A9" stroke="#263238" stroke-width="0.75" stroke-linecap="round" stroke-linejoin="round"/>
<path d="M102.465 210.336C90.8477 210.336 81.2774 218.337 79.9102 227.146C81.2774 232.682 90.8477 232.891 102.465 232.891C114.083 232.891 123.616 232.375 125.013 227.101C123.616 218.315 114.06 210.336 102.465 210.336Z" fill="#263238" stroke="#263238" stroke-width="0.75" stroke-linecap="round" stroke-linejoin="round"/>
<path d="M190.96 150.724C190.072 150.392 189.352 149.721 188.958 148.858C188.564 147.995 188.529 147.011 188.861 146.122L198.947 119.159C199.111 118.718 199.361 118.313 199.681 117.968C200.002 117.623 200.388 117.344 200.816 117.148C201.245 116.952 201.707 116.843 202.178 116.826C202.649 116.808 203.119 116.884 203.56 117.049C204.002 117.213 204.406 117.463 204.751 117.783C205.096 118.104 205.375 118.49 205.571 118.918C205.767 119.347 205.876 119.809 205.894 120.28C205.911 120.751 205.835 121.22 205.671 121.662L195.585 148.625C195.42 149.067 195.17 149.473 194.848 149.818C194.526 150.164 194.139 150.442 193.709 150.637C193.28 150.832 192.815 150.94 192.343 150.955C191.872 150.97 191.401 150.892 190.96 150.724Z" fill="white" stroke="#263238" stroke-width="0.75" stroke-linecap="round" stroke-linejoin="round"/>
<path d="M202.57 124.016L196.907 138.898" stroke="#263238" stroke-width="0.75" stroke-linecap="round" stroke-linejoin="round"/>
<path d="M175.615 191.815C174.832 191.523 174.115 191.08 173.503 190.511C172.892 189.942 172.399 189.258 172.052 188.499C171.705 187.739 171.511 186.918 171.482 186.084C171.452 185.249 171.587 184.417 171.879 183.634L186.276 145.136C186.87 143.556 188.068 142.277 189.606 141.58C191.143 140.883 192.895 140.825 194.475 141.419C196.055 142.014 197.335 143.212 198.032 144.749C198.729 146.287 198.786 148.039 198.192 149.619L183.765 188.08C183.176 189.653 181.988 190.929 180.461 191.629C178.933 192.329 177.191 192.396 175.615 191.815Z" fill="#263238" stroke="#263238" stroke-width="0.75" stroke-linecap="round" stroke-linejoin="round"/>
<path d="M229.054 50.0003C221.877 47.3163 214.065 46.8209 206.605 48.5768C199.146 50.3327 192.375 54.2611 187.149 59.8651C181.923 65.4691 178.475 72.4971 177.243 80.0603C176.011 87.6236 177.049 95.3824 180.226 102.356C183.404 109.329 188.577 115.203 195.093 119.236C201.609 123.269 209.175 125.279 216.833 125.012C224.491 124.745 231.899 122.213 238.118 117.736C244.337 113.26 249.09 107.039 251.774 99.862C255.371 90.237 254.998 79.5774 250.738 70.227C246.478 60.8767 238.678 53.6012 229.054 50.0003ZM204.258 116.298C198.324 114.078 193.181 110.148 189.481 105.005C185.78 99.862 183.688 93.7373 183.468 87.4053C183.248 81.0732 184.911 74.8182 188.246 69.4311C191.581 64.044 196.439 59.7668 202.205 57.1404C207.971 54.514 214.386 53.6562 220.639 54.6756C226.892 55.695 232.703 58.5458 237.336 62.8675C241.969 67.1891 245.217 72.7876 246.668 78.955C248.12 85.1224 247.71 91.5816 245.491 97.5161C242.512 105.474 236.496 111.923 228.763 115.445C221.031 118.967 212.217 119.274 204.258 116.298Z" fill="#263238" stroke="#263238" stroke-width="0.75" stroke-linecap="round" stroke-linejoin="round"/>
<path d="M189.503 74.5202C191.057 71.0925 193.276 68.0071 196.031 65.4424C198.785 62.8776 202.021 60.8844 205.551 59.5781" stroke="#263238" stroke-width="0.75" stroke-linecap="round" stroke-linejoin="round"/>
<path d="M186.941 86.3842C186.933 83.4781 187.371 80.588 188.24 77.8149" stroke="#263238" stroke-width="0.75" stroke-linecap="round" stroke-linejoin="round"/>
<path d="M178.752 94.2885C176.823 85.4027 178.179 76.1189 182.571 68.1567C186.962 60.1946 194.09 54.0938 202.635 50.9845C211.179 47.8752 220.561 47.9682 229.043 51.2461C237.524 54.524 244.53 60.7647 248.763 68.8123" stroke="white" stroke-miterlimit="10"/>
<path d="M252.812 81.812C253.907 90.7647 251.747 99.8127 246.726 107.305C241.705 114.798 234.158 120.235 225.461 122.626C216.764 125.017 207.498 124.201 199.352 120.328C191.207 116.455 184.725 109.782 181.09 101.528" stroke="white" stroke-miterlimit="10"/>
<path d="M250.272 72.062C251.248 74.439 251.976 76.91 252.447 79.4359" stroke="white" stroke-miterlimit="10"/>
<path d="M65.0429 218.375C70.9969 218.375 75.8236 213.548 75.8236 207.594C75.8236 201.64 70.9969 196.813 65.0429 196.813C59.0889 196.813 54.2622 201.64 54.2622 207.594C54.2622 213.548 59.0889 218.375 65.0429 218.375Z" fill="#263238"/>
<path d="M65.0431 216.694C70.0687 216.694 74.1428 212.619 74.1428 207.594C74.1428 202.568 70.0687 198.494 65.0431 198.494C60.0174 198.494 55.9434 202.568 55.9434 207.594C55.9434 212.619 60.0174 216.694 65.0431 216.694Z" fill="white" stroke="#263238" stroke-width="0.75" stroke-linecap="round" stroke-linejoin="round"/>
<path d="M62.2789 210.284C62.2 210.203 62.1558 210.095 62.1558 209.981C62.1558 209.868 62.2 209.76 62.2789 209.679L64.7443 207.213C64.8253 207.135 64.9339 207.09 65.0469 207.09C65.16 207.09 65.2686 207.135 65.3495 207.213C65.3906 207.253 65.4233 207.301 65.4457 207.353C65.468 207.406 65.4795 207.463 65.4795 207.52C65.4795 207.577 65.468 207.634 65.4457 207.686C65.4233 207.739 65.3906 207.786 65.3495 207.826L62.8915 210.284C62.8518 210.325 62.8042 210.358 62.7516 210.38C62.699 210.403 62.6424 210.414 62.5852 210.414C62.528 210.414 62.4715 210.403 62.4188 210.38C62.3662 210.358 62.3186 210.325 62.2789 210.284Z" fill="#263238"/>
<path d="M58.5279 214.034C58.4545 213.965 58.396 213.881 58.356 213.787C58.316 213.694 58.2954 213.594 58.2954 213.493C58.2954 213.391 58.316 213.291 58.356 213.198C58.396 213.105 58.4545 213.021 58.5279 212.951L62.0393 209.44C62.1092 209.365 62.1937 209.305 62.2875 209.265C62.3813 209.224 62.4825 209.203 62.5847 209.203C62.687 209.203 62.7881 209.224 62.8819 209.265C62.9757 209.305 63.0602 209.365 63.1301 209.44C63.2036 209.509 63.2621 209.593 63.302 209.687C63.342 209.78 63.3626 209.88 63.3626 209.981C63.3626 210.083 63.342 210.183 63.302 210.276C63.2621 210.369 63.2036 210.453 63.1301 210.523L59.6187 214.034C59.5488 214.109 59.4644 214.168 59.3706 214.209C59.2767 214.25 59.1756 214.271 59.0733 214.271C58.9711 214.271 58.8699 214.25 58.7761 214.209C58.6823 214.168 58.5978 214.109 58.5279 214.034Z" fill="#263238"/>
<path d="M71.5131 207.743C72.1689 207.089 72.6158 206.254 72.7972 205.345C72.9785 204.436 72.8862 203.494 72.5319 202.638C72.1775 201.781 71.5771 201.049 70.8066 200.534C70.0361 200.019 69.1302 199.744 68.2034 199.744C67.2766 199.744 66.3706 200.019 65.6001 200.534C64.8296 201.049 64.2292 201.781 63.8749 202.638C63.5206 203.494 63.4282 204.436 63.6096 205.345C63.791 206.254 64.2379 207.089 64.8937 207.743C65.772 208.62 66.9623 209.113 68.2034 209.113C69.4444 209.113 70.6348 208.62 71.5131 207.743Z" fill="#263238"/>
<path d="M70.6168 206.84C71.0921 206.363 71.4154 205.756 71.5459 205.095C71.6763 204.435 71.6082 203.75 71.35 203.129C71.0918 202.507 70.6551 201.975 70.0951 201.602C69.5352 201.228 68.877 201.028 68.2037 201.028C67.5304 201.028 66.8722 201.228 66.3122 201.602C65.7522 201.975 65.3155 202.507 65.0573 203.129C64.7991 203.75 64.731 204.435 64.8615 205.095C64.992 205.756 65.3153 206.363 65.7905 206.84C66.107 207.157 66.4831 207.409 66.8972 207.581C67.3113 207.753 67.7553 207.842 68.2037 207.842C68.652 207.842 69.096 207.753 69.5101 207.581C69.9242 207.409 70.3003 207.157 70.6168 206.84Z" fill="white"/>
<path d="M198.775 169.148C198.775 170.097 198.397 171.007 197.726 171.679C197.055 172.35 196.145 172.727 195.196 172.727H169.966C169.483 172.749 169 172.673 168.547 172.503C168.094 172.333 167.681 172.074 167.331 171.739C166.981 171.405 166.703 171.004 166.512 170.559C166.322 170.114 166.224 169.636 166.224 169.152C166.224 168.668 166.322 168.189 166.512 167.745C166.703 167.3 166.981 166.898 167.331 166.564C167.681 166.23 168.094 165.97 168.547 165.801C169 165.631 169.483 165.555 169.966 165.577H195.196C196.144 165.577 197.053 165.953 197.724 166.622C198.395 167.292 198.773 168.2 198.775 169.148Z" fill="#92E3A9" stroke="#263238" stroke-width="0.75" stroke-linecap="round" stroke-linejoin="round"/>
<path d="M183.676 171.621C184.773 171.621 185.663 170.731 185.663 169.634C185.663 168.536 184.773 167.646 183.676 167.646C182.578 167.646 181.688 168.536 181.688 169.634C181.688 170.731 182.578 171.621 183.676 171.621Z" fill="white" stroke="#263238" stroke-width="0.75" stroke-linecap="round" stroke-linejoin="round"/>
<path d="M153.47 192.959C156.144 192.959 158.311 190.791 158.311 188.118C158.311 185.444 156.144 183.276 153.47 183.276C150.796 183.276 148.629 185.444 148.629 188.118C148.629 190.791 150.796 192.959 153.47 192.959Z" fill="#92E3A9" stroke="#263238" stroke-width="0.75" stroke-linecap="round" stroke-linejoin="round"/>
<path d="M155.286 188.117C155.287 187.758 155.182 187.406 154.983 187.107C154.785 186.807 154.502 186.573 154.17 186.435C153.839 186.296 153.473 186.259 153.121 186.328C152.768 186.398 152.444 186.57 152.189 186.824C151.935 187.077 151.761 187.401 151.69 187.753C151.62 188.105 151.655 188.471 151.792 188.803C151.929 189.135 152.162 189.419 152.461 189.619C152.76 189.819 153.111 189.925 153.47 189.925C153.95 189.925 154.411 189.735 154.751 189.396C155.092 189.057 155.284 188.598 155.286 188.117Z" fill="white" stroke="#263238" stroke-width="0.75" stroke-linecap="round" stroke-linejoin="round"/>
<path d="M169.966 174.079C172.64 174.079 174.807 171.912 174.807 169.238C174.807 166.564 172.64 164.397 169.966 164.397C167.292 164.397 165.125 166.564 165.125 169.238C165.125 171.912 167.292 174.079 169.966 174.079Z" fill="#92E3A9" stroke="#263238" stroke-width="0.75" stroke-linecap="round" stroke-linejoin="round"/>
<path d="M169.966 171.106C170.998 171.106 171.834 170.269 171.834 169.238C171.834 168.206 170.998 167.37 169.966 167.37C168.935 167.37 168.099 168.206 168.099 169.238C168.099 170.269 168.935 171.106 169.966 171.106Z" fill="white" stroke="#263238" stroke-width="0.75" stroke-linecap="round" stroke-linejoin="round"/>
</g>
</svg>
